<svg xmlns="http://www.w3.org/2000/svg" width="19.206" height="18.449" viewBox="0 0 19.206 18.449"><defs><style>.a{fill:#fff;}</style></defs><g transform="translate(0 0)"><path class="a" d="M19.044,18.441A1.849,1.849,0,0,0,18.086,18l-4.378-.636L11.75,13.4a1.853,1.853,0,0,0-3.326,0L6.467,17.364,2.089,18a1.853,1.853,0,0,0-1.028,3.163l3.168,3.088-.748,4.36a1.853,1.853,0,0,0,2.691,1.955l3.916-2.059L14,30.566a1.854,1.854,0,0,0,2.691-1.955l-.748-4.36,3.168-3.088a1.857,1.857,0,0,0-.07-2.722Zm-.884,1.744-3.5,3.41a.488.488,0,0,0-.14.432l.826,4.815a.487.487,0,0,1-.708.514l-4.324-2.273a.488.488,0,0,0-.454,0L5.536,29.357a.487.487,0,0,1-.708-.514l.826-4.815a.488.488,0,0,0-.14-.432l-3.5-3.41a.488.488,0,0,1,.27-.832l4.835-.7a.488.488,0,0,0,.367-.267L9.65,14a.488.488,0,0,1,.875,0l2.162,4.381a.488.488,0,0,0,.367.267l4.835.7A.488.488,0,0,1,18.16,20.185Z" transform="translate(-0.484 -12.347)"/><path class="a" d="M14.382,30.315a1.878,1.878,0,0,1-.87-.216L9.6,28.044,5.695,30.1a1.87,1.87,0,0,1-2.714-1.972l.746-4.352L.565,20.693A1.869,1.869,0,0,1,1.6,17.5l4.37-.635,1.954-3.96a1.869,1.869,0,0,1,3.355,0l1.954,3.96,4.37.635a1.869,1.869,0,0,1,1.037,3.19l-3.162,3.082.746,4.352a1.871,1.871,0,0,1-1.843,2.188ZM9.6,28.008l.007,0,3.916,2.059a1.838,1.838,0,0,0,2.668-1.938l-.749-4.368,3.174-3.094A1.837,1.837,0,0,0,17.6,17.535L13.213,16.9l0-.008-1.958-3.967a1.837,1.837,0,0,0-3.3,0L5.993,16.9H5.984l-4.378.636A1.837,1.837,0,0,0,.587,20.671l3.174,3.094v.008l-.748,4.36A1.837,1.837,0,0,0,5.68,30.071Zm4.779.94a.5.5,0,0,1-.235-.059L9.823,26.616a.48.48,0,0,0-.439,0L5.059,28.89a.5.5,0,0,1-.235.059.506.506,0,0,1-.387-.182.494.494,0,0,1-.11-.408l.826-4.815a.472.472,0,0,0-.136-.418l-3.5-3.41a.5.5,0,0,1,.279-.86l4.835-.7a.472.472,0,0,0,.355-.258l2.162-4.381a.5.5,0,0,1,.9,0l2.162,4.381a.472.472,0,0,0,.355.258l4.835.7a.5.5,0,0,1,.279.86l-3.5,3.41a.472.472,0,0,0-.136.418l.826,4.815a.494.494,0,0,1-.11.408A.506.506,0,0,1,14.382,28.949ZM9.6,26.53a.506.506,0,0,1,.235.058l4.324,2.273a.469.469,0,0,0,.22.055.474.474,0,0,0,.363-.171.462.462,0,0,0,.1-.382l-.826-4.815a.5.5,0,0,1,.145-.446l3.5-3.41a.472.472,0,0,0-.262-.805l-4.835-.7a.5.5,0,0,1-.379-.276l-2.162-4.381a.472.472,0,0,0-.847,0L7.017,17.909a.5.5,0,0,1-.379.276l-4.835.7a.472.472,0,0,0-.262.805l3.5,3.41a.5.5,0,0,1,.145.446l-.826,4.815a.463.463,0,0,0,.1.382.475.475,0,0,0,.363.171.468.468,0,0,0,.22-.055l4.324-2.273A.506.506,0,0,1,9.6,26.53Z" transform="translate(0 -11.866)"/><path class="a" d="M19,19.083l5.99-1.2L27.571,13l3.963,5.253,4.885.829v1.474l-3.5,3.686.83,4.977-.83.553-5.345-1.935-4.055,1.935H22.133v-5.53L19,20.557Z" transform="translate(-18.124 -12.401)"/></g></svg>